# xmcd CD database file
#
# Track frame offsets:
#	150
#	3416
#	19865
#	35505
#	45316
#	50759
#	68255
#	80140
#	90555
#	94755
#	115743
#	123010
#	141229
#	155458
#	176201
#	183086
#
# Disc length: 2508 seconds
#
# Revision: 1
# Processed by: cddbd v1.5.1PL0 Copyright (c) Steve Scherf et al.
# Submitted via: CDex 1.40Beta4
#
DISCID=c509ca10
DTITLE=Der Reiseführer für Kinder - Die Reisemaus in Italien
DYEAR=2001
DGENRE=Country
TTITLE0=Es war einmal
TTITLE1=Das Lied der Reisemaus
TTITLE2=Rudi Ratte
TTITLE3=700 Jahre für einen Dom
TTITLE4=Bei den Menichellis
TTITLE5=Die schönste Sprache der Welt
TTITLE6=Gratisfutter für Katzen
TTITLE7=Ein Unglück passiert
TTITLE8=Italieniesche Kostbarkeiten
TTITLE9=Bella Italia
TTITLE10=Auf nach Pisa
TTITLE11=Der Turm ist schief
TTITLE12=Die ewige Stadt
TTITLE13=Oh, Leonardo
TTITLE14=Pizza!!
TTITLE15=Arrividerci, ciao!
EXTD=YEAR: 2001 ID3G:   2
EXTT0=
EXTT1=
EXTT2=
EXTT3=
EXTT4=
EXTT5=
EXTT6=
EXTT7=
EXTT8=
EXTT9=
EXTT10=
EXTT11=
EXTT12=
EXTT13=
EXTT14=
EXTT15=
PLAYORDER=
